Khula-Light2.ufo
<glyph name="exclam" format="1">
  <advance width="465"/>
  <unicode hex="0021"/>
  <outline>
    <contour>
      <point x="260" y="339" type="line"/>
      <point x="205" y="339" type="line"/>
      <point x="179" y="1316" type="line"/>
      <point x="286" y="1316" type="line"/>
    </contour>
    <contour>
      <point x="160" y="70" type="curve" smooth="yes"/>
      <point x="160" y="129"/>
      <point x="184" y="158"/>
      <point x="232" y="158" type="curve" smooth="yes"/>
      <point x="281" y="158"/>
      <point x="305" y="129"/>
      <point x="305" y="70" type="curve" smooth="yes"/>
      <point x="305" y="11"/>
      <point x="281" y="-18"/>
      <point x="232" y="-18" type="curve" smooth="yes"/>
      <point x="184" y="-18"/>
      <point x="160" y="11"/>
    </contour>
  </outline>
</glyph>
<glyph name="quotedbl" format="1">
  <advance width="771"/>
  <unicode hex="0022"/>
  <outline>
    <contour>
      <point x="294" y="1316" type="line"/>
      <point x="264" y="841" type="line"/>
      <point x="209" y="841" type="line"/>
      <point x="180" y="1316" type="line"/>
    </contour>
    <contour>
      <point x="591" y="1316" type="line"/>
      <point x="561" y="841" type="line"/>
      <point x="506" y="841" type="line"/>
      <point x="477" y="1316" type="line"/>
    </contour>
  </outline>
</glyph>
<glyph name="parenright" format="1">
  <advance width="621"/>
  <unicode hex="0029"/>
  <outline>
    <contour>
      <point x="527" y="605" type="curve" smooth="yes"/>
      <point x="527" y="289"/>
      <point x="432" y="11"/>
      <point x="257" y="-192" type="curve"/>
      <point x="157" y="-192" type="line"/>
      <point x="339" y="51"/>
      <point x="430" y="317"/>
      <point x="430" y="607" type="curve" smooth="yes"/>
      <point x="430" y="915"/>
      <point x="332" y="1199"/>
      <point x="155" y="1416" type="curve"/>
      <point x="257" y="1416" type="line"/>
      <point x="433" y="1205"/>
      <point x="527" y="921"/>
    </contour>
  </outline>
</glyph>
<glyph name="equal" format="1">
  <advance width="1052"/>
  <unicode hex="003D"/>
  <outline>
    <contour>
      <point x="100" y="796" type="line"/>
      <point x="100" y="870" type="line"/>
      <point x="953" y="870" type="line"/>
      <point x="953" y="796" type="line"/>
    </contour>
    <contour>
      <point x="100" y="429" type="line"/>
      <point x="100" y="503" type="line"/>
      <point x="953" y="503" type="line"/>
      <point x="953" y="429" type="line"/>
    </contour>
  </outline>
</glyph>
<glyph name="L" format="1">
  <advance width="946"/>
  <unicode hex="004C"/>
  <outline>
    <contour>
      <point x="186" y="0" type="line"/>
      <point x="186" y="1316" type="line"/>
      <point x="278" y="1316" type="line"/>
      <point x="278" y="86" type="line"/>
      <point x="905" y="86" type="line"/>
      <point x="905" y="0" type="line"/>
    </contour>
  </outline>
</glyph>
<glyph name="Y" format="1">
  <advance width="973"/>
  <unicode hex="0059"/>
  <outline>
    <contour>
      <point x="489" y="596" type="line"/>
      <point x="874" y="1316" type="line"/>
      <point x="973" y="1316" type="line"/>
      <point x="535" y="508" type="line"/>
      <point x="535" y="0" type="line"/>
      <point x="440" y="0" type="line"/>
      <point x="440" y="501" type="line"/>
      <point x="0" y="1316" type="line"/>
      <point x="105" y="1316" type="line"/>
    </contour>
  </outline>
</glyph>
<glyph name="bracketleft" format="1">
  <advance width="788"/>
  <unicode hex="005B"/>
  <outline>
    <contour>
      <point x="642" y="-192" type="line"/>
      <point x="257" y="-192" type="line"/>
      <point x="257" y="1416" type="line"/>
      <point x="642" y="1416" type="line"/>
      <point x="642" y="1331" type="line"/>
      <point x="345" y="1331" type="line"/>
      <point x="345" y="-106" type="line"/>
      <point x="642" y="-106" type="line"/>
    </contour>
  </outline>
</glyph>
<glyph name="h" format="1">
  <advance width="1087"/>
  <unicode hex="0068"/>
  <outline>
    <contour>
      <point x="846" y="0" type="line"/>
      <point x="846" y="634" type="line" smooth="yes"/>
      <point x="846" y="831"/>
      <point x="766" y="916"/>
      <point x="591" y="916" type="curve" smooth="yes"/>
      <point x="358" y="916"/>
      <point x="253" y="805"/>
      <point x="253" y="540" type="curve" smooth="yes"/>
      <point x="253" y="0" type="line"/>
      <point x="164" y="0" type="line"/>
      <point x="164" y="1400" type="line"/>
      <point x="253" y="1400" type="line"/>
      <point x="253" y="955" type="line"/>
      <point x="248" y="830" type="line"/>
      <point x="255" y="830" type="line"/>
      <point x="328" y="947"/>
      <point x="436" y="997"/>
      <point x="601" y="997" type="curve" smooth="yes"/>
      <point x="823" y="997"/>
      <point x="934" y="878"/>
      <point x="934" y="640" type="curve" smooth="yes"/>
      <point x="934" y="0" type="line"/>
    </contour>
  </outline>
</glyph>
<glyph name="t" format="1">
  <advance width="617"/>
  <unicode hex="0074"/>
  <outline>
    <contour>
      <point x="422" y="61" type="curve" smooth="yes"/>
      <point x="479" y="61"/>
      <point x="528" y="66"/>
      <point x="570" y="76" type="curve"/>
      <point x="570" y="4" type="line"/>
      <point x="527" y="-11"/>
      <point x="477" y="-18"/>
      <point x="420" y="-18" type="curve" smooth="yes"/>
      <point x="248" y="-18"/>
      <point x="167" y="72"/>
      <point x="167" y="269" type="curve" smooth="yes"/>
      <point x="167" y="901" type="line"/>
      <point x="22" y="901" type="line"/>
      <point x="22" y="953" type="line"/>
      <point x="167" y="994" type="line"/>
      <point x="212" y="1215" type="line"/>
      <point x="258" y="1215" type="line"/>
      <point x="258" y="978" type="line"/>
      <point x="545" y="978" type="line"/>
      <point x="545" y="901" type="line"/>
      <point x="258" y="901" type="line"/>
      <point x="258" y="282" type="line" smooth="yes"/>
      <point x="258" y="131"/>
      <point x="309" y="61"/>
    </contour>
  </outline>
</glyph>
<glyph name="nadeva" format="1">
  <advance width="1157"/>
  <unicode hex="0928"/>
  <outline>
    <contour>
      <point x="831" y="771" type="line"/>
      <point x="831" y="695" type="line"/>
      <point x="237" y="695" type="line"/>
      <point x="287" y="746" type="line"/>
      <point x="287" y="487" type="line" smooth="yes"/>
      <point x="287" y="455"/>
      <point x="274" y="442"/>
      <point x="256" y="442" type="curve" smooth="yes"/>
      <point x="247" y="442"/>
      <point x="241" y="445"/>
      <point x="234" y="452" type="curve" smooth="yes"/>
      <point x="199" y="487"/>
      <point x="157" y="631"/>
      <point x="157" y="718" type="curve" smooth="yes"/>
      <point x="157" y="750"/>
      <point x="177" y="771"/>
      <point x="213" y="771" type="curve" smooth="yes"/>
    </contour>
    <contour>
      <point x="-30" y="1198" type="curve"/>
      <point x="-30" y="1274" type="line"/>
      <point x="1187" y="1274" type="line"/>
      <point x="1187" y="1198" type="line"/>
      <point x="1187" y="1198"/>
      <point x="-30" y="1198"/>
    </contour>
    <contour>
      <point x="818" y="1226" type="line"/>
      <point x="907" y="1226" type="line"/>
      <point x="907" y="0" type="line"/>
      <point x="818" y="0" type="line"/>
    </contour>
    <contour>
      <point x="818" y="1274" type="move" name="top"/>
    </contour>
  </outline>
</glyph>
<glyph name="oevowelsigndevaKSH" format="1">
  <advance width="0"/>
  <unicode hex="093A"/>
  <outline>
    <component base="udattadeva" yOffset="-233"/>
    <contour>
      <point x="-342" y="1273" type="move" name="_top"/>
    </contour>
  </outline>
</glyph>
<glyph name="lvocalicvowelsigndeva" format="1">
  <advance width="0"/>
  <unicode hex="0962"/>
  <outline>
    <contour>
      <point x="-269" y="-29" type="curve"/>
      <point x="-308" y="-77" type="line"/>
      <point x="-362" y="3"/>
      <point x="-415" y="38"/>
      <point x="-494" y="38" type="curve" smooth="yes"/>
      <point x="-567" y="38"/>
      <point x="-613" y="-14"/>
      <point x="-613" y="-76" type="curve" smooth="yes"/>
      <point x="-613" y="-150"/>
      <point x="-583" y="-209"/>
      <point x="-461" y="-307" type="curve"/>
      <point x="-510" y="-343" type="line"/>
      <point x="-632" y="-243"/>
      <point x="-679" y="-154"/>
      <point x="-679" y="-74" type="curve" smooth="yes"/>
      <point x="-679" y="22"/>
      <point x="-612" y="101"/>
      <point x="-491" y="101" type="curve" smooth="yes"/>
      <point x="-393" y="101"/>
      <point x="-322" y="44"/>
    </contour>
    <contour>
      <point x="-53" y="-233" type="curve"/>
      <point x="-101" y="-263" type="line"/>
      <point x="-50" y="-205"/>
      <point x="-24" y="-160"/>
      <point x="-24" y="-95" type="curve" smooth="yes"/>
      <point x="-24" y="-42"/>
      <point x="-60" y="14"/>
      <point x="-132" y="14" type="curve" smooth="yes"/>
      <point x="-223" y="14"/>
      <point x="-285" y="-60"/>
      <point x="-316" y="-172" type="curve"/>
      <point x="-374" y="-152" type="line"/>
      <point x="-345" y="-28"/>
      <point x="-258" y="77"/>
      <point x="-135" y="77" type="curve" smooth="yes"/>
      <point x="-23" y="77"/>
      <point x="36" y="-5"/>
      <point x="36" y="-101" type="curve" smooth="yes"/>
      <point x="36" y="-166"/>
      <point x="2" y="-234"/>
      <point x="-42" y="-285" type="curve"/>
      <point x="-131" y="-285"/>
      <point x="-166" y="-315"/>
      <point x="-166" y="-356" type="curve" smooth="yes"/>
      <point x="-166" y="-397"/>
      <point x="-135" y="-421"/>
      <point x="-74" y="-421" type="curve" smooth="yes"/>
      <point x="-40" y="-421"/>
      <point x="-14" y="-415"/>
      <point x="30" y="-396" type="curve"/>
      <point x="38" y="-446" type="line"/>
      <point x="0" y="-465"/>
      <point x="-32" y="-471"/>
      <point x="-74" y="-471" type="curve" smooth="yes"/>
      <point x="-162" y="-471"/>
      <point x="-223" y="-422"/>
      <point x="-223" y="-352" type="curve" smooth="yes"/>
      <point x="-223" y="-288"/>
      <point x="-164" y="-233"/>
    </contour>
    <contour>
      <point x="-339" y="0" type="move" name="_btm"/>
    </contour>
  </outline>
</glyph>
<glyph name="llvocalicvowelsigndeva" format="1">
  <advance width="0"/>
  <unicode hex="0963"/>
  <outline>
    <contour>
      <point x="76" y="-602" type="line"/>
      <point x="48" y="-619"/>
      <point x="11" y="-627"/>
      <point x="-25" y="-627" type="curve" smooth="yes"/>
      <point x="-102" y="-627"/>
      <point x="-150" y="-582"/>
      <point x="-150" y="-526" type="curve" smooth="yes"/>
      <point x="-150" y="-469"/>
      <point x="-102" y="-430"/>
      <point x="-29" y="-429" type="curve"/>
      <point x="-27" y="-469" type="line"/>
      <point x="-78" y="-471"/>
      <point x="-96" y="-499"/>
      <point x="-96" y="-529" type="curve" smooth="yes"/>
      <point x="-96" y="-561"/>
      <point x="-72" y="-579"/>
      <point x="-25" y="-579" type="curve" smooth="yes"/>
      <point x="4" y="-579"/>
      <point x="36" y="-570"/>
      <point x="66" y="-555" type="curve"/>
    </contour>
    <contour>
      <point x="-269" y="-29" type="curve"/>
      <point x="-308" y="-77" type="line"/>
      <point x="-362" y="3"/>
      <point x="-415" y="38"/>
      <point x="-494" y="38" type="curve" smooth="yes"/>
      <point x="-567" y="38"/>
      <point x="-613" y="-14"/>
      <point x="-613" y="-76" type="curve" smooth="yes"/>
      <point x="-613" y="-150"/>
      <point x="-583" y="-209"/>
      <point x="-461" y="-307" type="curve"/>
      <point x="-510" y="-343" type="line"/>
      <point x="-632" y="-243"/>
      <point x="-679" y="-154"/>
      <point x="-679" y="-74" type="curve" smooth="yes"/>
      <point x="-679" y="22"/>
      <point x="-612" y="101"/>
      <point x="-491" y="101" type="curve" smooth="yes"/>
      <point x="-393" y="101"/>
      <point x="-322" y="44"/>
    </contour>
    <contour>
      <point x="-50" y="-235" type="curve"/>
      <point x="-101" y="-263" type="line"/>
      <point x="-50" y="-205"/>
      <point x="-24" y="-160"/>
      <point x="-24" y="-95" type="curve" smooth="yes"/>
      <point x="-24" y="-42"/>
      <point x="-60" y="14"/>
      <point x="-132" y="14" type="curve" smooth="yes"/>
      <point x="-223" y="14"/>
      <point x="-285" y="-60"/>
      <point x="-316" y="-172" type="curve"/>
      <point x="-374" y="-152" type="line"/>
      <point x="-345" y="-28"/>
      <point x="-258" y="77"/>
      <point x="-135" y="77" type="curve" smooth="yes"/>
      <point x="-23" y="77"/>
      <point x="36" y="-5"/>
      <point x="36" y="-101" type="curve" smooth="yes"/>
      <point x="36" y="-166"/>
      <point x="2" y="-234"/>
      <point x="-42" y="-285" type="curve"/>
      <point x="-48" y="-285" type="line" smooth="yes"/>
      <point x="-132" y="-285"/>
      <point x="-164" y="-326"/>
      <point x="-164" y="-366" type="curve" smooth="yes"/>
      <point x="-164" y="-401"/>
      <point x="-134" y="-427"/>
      <point x="-76" y="-427" type="curve" smooth="yes"/>
      <point x="-49" y="-427"/>
      <point x="-19" y="-418"/>
      <point x="22" y="-404" type="curve"/>
      <point x="32" y="-456" type="line"/>
      <point x="-7" y="-469"/>
      <point x="-48" y="-478"/>
      <point x="-76" y="-478" type="curve" smooth="yes"/>
      <point x="-161" y="-478"/>
      <point x="-221" y="-425"/>
      <point x="-221" y="-361" type="curve" smooth="yes"/>
      <point x="-221" y="-296"/>
      <point x="-164" y="-235"/>
    </contour>
    <contour>
      <point x="-339" y="0" type="move" name="_btm"/>
    </contour>
  </outline>
</glyph>
<glyph name="fourdeva" format="1">
  <advance width="1008"/>
  <unicode hex="096A"/>
  <outline>
    <contour>
      <point x="43" y="1201" type="line"/>
      <point x="102" y="1261" type="line"/>
      <point x="585" y="729" type="line" smooth="yes"/>
      <point x="748" y="549"/>
      <point x="792" y="439"/>
      <point x="792" y="345" type="curve" smooth="yes"/>
      <point x="792" y="223"/>
      <point x="693" y="109"/>
      <point x="533" y="109" type="curve" smooth="yes"/>
      <point x="358" y="109"/>
      <point x="255" y="242"/>
      <point x="255" y="361" type="curve" smooth="yes"/>
      <point x="255" y="456"/>
      <point x="282" y="544"/>
      <point x="448" y="726" type="curve" smooth="yes"/>
      <point x="935" y="1262" type="line"/>
      <point x="995" y="1206" type="line"/>
      <point x="500" y="658" type="line" smooth="yes"/>
      <point x="363" y="506"/>
      <point x="337" y="440"/>
      <point x="337" y="356" type="curve" smooth="yes"/>
      <point x="337" y="264"/>
      <point x="413" y="186"/>
      <point x="520" y="186" type="curve" smooth="yes"/>
      <point x="641" y="186"/>
      <point x="711" y="259"/>
      <point x="711" y="358" type="curve" smooth="yes"/>
      <point x="711" y="427"/>
      <point x="681" y="507"/>
      <point x="531" y="670" type="curve" smooth="yes"/>
    </contour>
  </outline>
</glyph>
<glyph name="eightdeva" format="1">
  <advance width="973"/>
  <unicode hex="096E"/>
  <outline>
    <contour>
      <point x="686" y="1250" type="line"/>
      <point x="748" y="1197" type="line"/>
      <point x="355" y="765" type="line" smooth="yes"/>
      <point x="243" y="641"/>
      <point x="207" y="557"/>
      <point x="207" y="452" type="curve" smooth="yes"/>
      <point x="207" y="327"/>
      <point x="321" y="221"/>
      <point x="486" y="223" type="curve" smooth="yes"/>
      <point x="623" y="225"/>
      <point x="746" y="271"/>
      <point x="896" y="399" type="curve"/>
      <point x="942" y="327" type="line"/>
      <point x="787" y="195"/>
      <point x="649" y="142"/>
      <point x="496" y="142" type="curve" smooth="yes"/>
      <point x="270" y="142"/>
      <point x="122" y="279"/>
      <point x="122" y="467" type="curve" smooth="yes"/>
      <point x="122" y="588"/>
      <point x="170" y="696"/>
      <point x="292" y="827" type="curve" smooth="yes"/>
    </contour>
  </outline>
</glyph>
<glyph name="ddhaddhadeva" format="1">
  <advance width="1095"/>
  <outline>
    <contour>
      <point x="704" y="324" type="line"/>
      <point x="793" y="324" type="line"/>
      <point x="793" y="71" type="line"/>
      <point x="581" y="71" type="line" smooth="yes"/>
      <point x="325" y="71"/>
      <point x="240" y="-24"/>
      <point x="240" y="-154" type="curve" smooth="yes"/>
      <point x="240" y="-287"/>
      <point x="382" y="-389"/>
      <point x="624" y="-389" type="curve" smooth="yes"/>
      <point x="810" y="-389"/>
      <point x="887" y="-318"/>
      <point x="887" y="-250" type="curve" smooth="yes"/>
      <point x="887" y="-194"/>
      <point x="842" y="-141"/>
      <point x="745" y="-141" type="curve" smooth="yes"/>
      <point x="642" y="-141"/>
      <point x="590" y="-201"/>
      <point x="590" y="-270" type="curve" smooth="yes"/>
      <point x="590" y="-319"/>
      <point x="605" y="-364"/>
      <point x="642" y="-408" type="curve"/>
      <point x="568" y="-414" type="line"/>
      <point x="537" y="-371"/>
      <point x="515" y="-323"/>
      <point x="515" y="-261" type="curve" smooth="yes"/>
      <point x="515" y="-158"/>
      <point x="600" y="-67"/>
      <point x="740" y="-67" type="curve" smooth="yes"/>
      <point x="875" y="-67"/>
      <point x="960" y="-149"/>
      <point x="960" y="-257" type="curve" smooth="yes"/>
      <point x="960" y="-369"/>
      <point x="840" y="-462"/>
      <point x="643" y="-462" type="curve" smooth="yes"/>
      <point x="327" y="-462"/>
      <point x="160" y="-334"/>
      <point x="160" y="-135" type="curve" smooth="yes"/>
      <point x="160" y="16"/>
      <point x="287" y="147"/>
      <point x="542" y="147" type="curve" smooth="yes"/>
      <point x="745" y="147" type="line"/>
      <point x="704" y="113" type="line"/>
    </contour>
    <contour>
      <point x="1125" y="1198" type="line"/>
      <point x="-30" y="1198" type="line"/>
      <point x="-30" y="1274" type="line"/>
      <point x="1125" y="1274" type="line"/>
    </contour>
    <contour>
      <point x="743" y="1228" type="line"/>
      <point x="832" y="1228" type="line"/>
      <point x="832" y="905" type="line"/>
      <point x="590" y="905" type="line" smooth="yes"/>
      <point x="344" y="905"/>
      <point x="225" y="802"/>
      <point x="225" y="650" type="curve" smooth="yes"/>
      <point x="225" y="487"/>
      <point x="391" y="375"/>
      <point x="633" y="375" type="curve" smooth="yes"/>
      <point x="839" y="375"/>
      <point x="922" y="441"/>
      <point x="922" y="517" type="curve" smooth="yes"/>
      <point x="922" y="581"/>
      <point x="865" y="633"/>
      <point x="768" y="633" type="curve" smooth="yes"/>
      <point x="665" y="633"/>
      <point x="609" y="582"/>
      <point x="609" y="492" type="curve" smooth="yes"/>
      <point x="609" y="440"/>
      <point x="629" y="395"/>
      <point x="667" y="356" type="curve"/>
      <point x="586" y="350" type="line"/>
      <point x="551" y="392"/>
      <point x="531" y="450"/>
      <point x="531" y="507" type="curve" smooth="yes"/>
      <point x="531" y="631"/>
      <point x="621" y="708"/>
      <point x="761" y="708" type="curve" smooth="yes"/>
      <point x="896" y="708"/>
      <point x="998" y="630"/>
      <point x="998" y="507" type="curve" smooth="yes"/>
      <point x="998" y="387"/>
      <point x="860" y="302"/>
      <point x="652" y="302" type="curve" smooth="yes"/>
      <point x="326" y="302"/>
      <point x="140" y="451"/>
      <point x="140" y="670" type="curve" smooth="yes"/>
      <point x="140" y="841"/>
      <point x="298" y="981"/>
      <point x="551" y="981" type="curve" smooth="yes"/>
      <point x="784" y="981" type="line"/>
      <point x="743" y="947" type="line"/>
    </contour>
    <contour>
      <point x="743" y="1274" type="move" name="top"/>
    </contour>
    <contour>
      <point x="558.0" y="-455.0" type="move" name="btm"/>
    </contour>
  </outline>
</glyph>
<glyph name="eightdevaNEP" format="1">
  <advance width="1005"/>
  <outline>
    <contour>
      <point x="36" y="1146" type="curve"/>
      <point x="36" y="1222" type="line"/>
      <point x="968" y="1222" type="line"/>
      <point x="968" y="1146" type="line"/>
      <point x="968" y="1146"/>
      <point x="36" y="1146"/>
    </contour>
    <contour>
      <point x="445" y="342" type="curve" smooth="yes"/>
      <point x="249" y="342"/>
      <point x="128" y="447"/>
      <point x="128" y="650" type="curve" smooth="yes"/>
      <point x="128" y="847"/>
      <point x="233" y="1062"/>
      <point x="349" y="1195" type="curve"/>
      <point x="420" y="1148" type="line"/>
      <point x="290" y="1013"/>
      <point x="211" y="821"/>
      <point x="211" y="639" type="curve" smooth="yes"/>
      <point x="211" y="497"/>
      <point x="301" y="421"/>
      <point x="434" y="421" type="curve" smooth="yes"/>
      <point x="555" y="421"/>
      <point x="659" y="461"/>
      <point x="768" y="461" type="curve" smooth="yes"/>
      <point x="883" y="461"/>
      <point x="961" y="376"/>
      <point x="961" y="267" type="curve" smooth="yes"/>
      <point x="961" y="179"/>
      <point x="921" y="101"/>
      <point x="845" y="15" type="curve"/>
      <point x="777" y="53" type="line"/>
      <point x="850" y="129"/>
      <point x="887" y="206"/>
      <point x="887" y="273" type="curve" smooth="yes"/>
      <point x="887" y="328"/>
      <point x="840" y="382"/>
      <point x="770" y="382" type="curve" smooth="yes"/>
      <point x="677" y="382"/>
      <point x="578" y="342"/>
    </contour>
  </outline>
</glyph>
<glyph name="eshortvowelsignrephanusdeva" format="1">
  <advance width="0"/>
  <outline>
    <contour>
      <point x="-269" y="1244" type="line"/>
      <point x="-327" y="1344"/>
      <point x="-336" y="1454"/>
      <point x="-336" y="1554" type="curve" smooth="yes"/>
      <point x="-336" y="1666"/>
      <point x="-258" y="1761"/>
      <point x="-116" y="1761" type="curve" smooth="yes"/>
      <point x="-52" y="1761"/>
      <point x="-16" y="1753"/>
      <point x="27" y="1742" type="curve"/>
      <point x="19" y="1670" type="line"/>
      <point x="-21" y="1679"/>
      <point x="-54" y="1684"/>
      <point x="-95" y="1684" type="curve" smooth="yes"/>
      <point x="-204" y="1684"/>
      <point x="-253" y="1622"/>
      <point x="-253" y="1535" type="curve" smooth="yes"/>
      <point x="-253" y="1482"/>
      <point x="-253" y="1337"/>
      <point x="-253" y="1244" type="curve"/>
    </contour>
    <contour>
      <point x="-82" y="1565" type="curve" smooth="yes"/>
      <point x="-41" y="1565"/>
      <point x="-16" y="1535"/>
      <point x="-16" y="1485" type="curve" smooth="yes"/>
      <point x="-16" y="1436"/>
      <point x="-41" y="1405"/>
      <point x="-82" y="1405" type="curve" smooth="yes"/>
      <point x="-122" y="1405"/>
      <point x="-146" y="1436"/>
      <point x="-146" y="1485" type="curve" smooth="yes"/>
      <point x="-146" y="1535"/>
      <point x="-122" y="1565"/>
    </contour>
    <component base="eshortvowelsigndeva"/>
    <contour>
      <point x="-342.0" y="1274.0" type="move" name="_top"/>
    </contour>
  </outline>
</glyph>
<glyph name="haraudeva" format="1">
  <advance width="1114"/>
  <outline>
    <contour>
      <point x="839" y="517" type="line"/>
      <point x="543" y="149" type="line"/>
      <point x="476" y="196" type="line"/>
      <point x="774" y="564" type="line"/>
    </contour>
    <contour>
      <point x="1144" y="1198" type="line"/>
      <point x="-30" y="1198" type="line"/>
      <point x="-30" y="1274" type="line"/>
      <point x="1144" y="1274" type="line"/>
    </contour>
    <contour>
      <point x="776" y="1238" type="line"/>
      <point x="865" y="1238" type="line"/>
      <point x="865" y="875" type="line"/>
      <point x="402" y="875" type="line" smooth="yes"/>
      <point x="268" y="875"/>
      <point x="209" y="809"/>
      <point x="209" y="731" type="curve" smooth="yes"/>
      <point x="209" y="654"/>
      <point x="271" y="588"/>
      <point x="370" y="551" type="curve"/>
      <point x="339" y="482" type="line"/>
      <point x="203" y="543"/>
      <point x="131" y="639"/>
      <point x="131" y="739" type="curve" smooth="yes"/>
      <point x="131" y="858"/>
      <point x="212" y="951"/>
      <point x="412" y="951" type="curve" smooth="yes"/>
      <point x="815" y="951" type="line"/>
      <point x="776" y="912" type="line"/>
    </contour>
    <contour>
      <point x="588" y="621" type="curve" smooth="yes"/>
      <point x="813" y="621"/>
      <point x="946" y="498"/>
      <point x="946" y="339" type="curve" smooth="yes"/>
      <point x="946" y="262"/>
      <point x="920" y="191"/>
      <point x="883" y="133" type="curve"/>
      <point x="809" y="160" type="line"/>
      <point x="846" y="211"/>
      <point x="867" y="275"/>
      <point x="867" y="338" type="curve" smooth="yes"/>
      <point x="867" y="443"/>
      <point x="775" y="541"/>
      <point x="592" y="541" type="curve" smooth="yes"/>
      <point x="407" y="541"/>
      <point x="291" y="417"/>
      <point x="291" y="260" type="curve" smooth="yes"/>
      <point x="291" y="70"/>
      <point x="453" y="-43"/>
      <point x="684" y="-96" type="curve"/>
      <point x="661" y="-170" type="line"/>
      <point x="424" y="-118"/>
      <point x="209" y="20"/>
      <point x="209" y="272" type="curve" smooth="yes"/>
      <point x="209" y="462"/>
      <point x="354" y="621"/>
    </contour>
    <component base="uvowelsigndeva" xOffset="933" yOffset="-103"/>
  </outline>
</glyph>
<glyph name="ivowelsign01deva" format="1">
  <advance width="567"/>
  <outline>
    <contour>
      <point x="317" y="1254"/>
      <point x="228" y="1254"/>
      <point x="228" y="1254" type="curve"/>
      <point x="228" y="1389" type="line" smooth="yes"/>
      <point x="228" y="1576"/>
      <point x="357" y="1722"/>
      <point x="568" y="1722" type="curve" smooth="yes"/>
      <point x="711" y="1722"/>
      <point x="851" y="1680"/>
      <point x="1069" y="1569" type="curve"/>
      <point x="1034" y="1499" type="line"/>
      <point x="829" y="1602"/>
      <point x="692" y="1637"/>
      <point x="576" y="1637" type="curve" smooth="yes"/>
      <point x="413" y="1637"/>
      <point x="317" y="1530"/>
      <point x="317" y="1380" type="curve" smooth="yes"/>
      <point x="317" y="1254" type="line"/>
    </contour>
    <component base="aavowelsigndeva"/>
  </outline>
</glyph>
<glyph name="ivowelsign04deva" format="1">
  <advance width="567"/>
  <outline>
    <contour>
      <point x="317" y="1254"/>
      <point x="228" y="1254"/>
      <point x="228" y="1254" type="curve"/>
      <point x="228" y="1359" type="line" smooth="yes"/>
      <point x="228" y="1540"/>
      <point x="366" y="1723"/>
      <point x="693" y="1723" type="curve" smooth="yes"/>
      <point x="940" y="1723"/>
      <point x="1182" y="1679"/>
      <point x="1485" y="1581" type="curve"/>
      <point x="1460" y="1504" type="line"/>
      <point x="1169" y="1597"/>
      <point x="900" y="1638"/>
      <point x="703" y="1638" type="curve" smooth="yes"/>
      <point x="433" y="1638"/>
      <point x="317" y="1501"/>
      <point x="317" y="1350" type="curve" smooth="yes"/>
      <point x="317" y="1254" type="line"/>
    </contour>
    <component base="aavowelsigndeva"/>
  </outline>
</glyph>
<glyph name="ivowelsign08deva" format="1">
  <advance width="567"/>
  <outline>
    <contour>
      <point x="317" y="1254"/>
      <point x="228" y="1254"/>
      <point x="228" y="1254" type="curve"/>
      <point x="228" y="1359" type="line" smooth="yes"/>
      <point x="228" y="1548"/>
      <point x="345" y="1730"/>
      <point x="835" y="1730" type="curve" smooth="yes"/>
      <point x="1159" y="1730"/>
      <point x="1675" y="1679"/>
      <point x="2126" y="1593" type="curve"/>
      <point x="2102" y="1520" type="line"/>
      <point x="1667" y="1601"/>
      <point x="1192" y="1648"/>
      <point x="845" y="1648" type="curve" smooth="yes"/>
      <point x="424" y="1648"/>
      <point x="317" y="1511"/>
      <point x="317" y="1350" type="curve" smooth="yes"/>
      <point x="317" y="1254" type="line"/>
    </contour>
    <component base="aavowelsigndeva"/>
  </outline>
</glyph>
<glyph name="ivowelsign09deva" format="1">
  <advance width="567"/>
  <outline>
    <contour>
      <point x="317" y="1254"/>
      <point x="228" y="1254"/>
      <point x="228" y="1254" type="curve"/>
      <point x="228" y="1359" type="line" smooth="yes"/>
      <point x="228" y="1549"/>
      <point x="346" y="1730"/>
      <point x="835" y="1730" type="curve" smooth="yes"/>
      <point x="1170" y="1730"/>
      <point x="1779" y="1683"/>
      <point x="2336" y="1593" type="curve"/>
      <point x="2312" y="1520" type="line"/>
      <point x="1757" y="1608"/>
      <point x="1214" y="1648"/>
      <point x="856" y="1648" type="curve" smooth="yes"/>
      <point x="408" y="1648"/>
      <point x="317" y="1502"/>
      <point x="317" y="1350" type="curve" smooth="yes"/>
      <point x="317" y="1254" type="line"/>
    </contour>
    <component base="aavowelsigndeva"/>
  </outline>
</glyph>
<glyph name="ivowelsign10deva" format="1">
  <advance width="567"/>
  <outline>
    <contour>
      <point x="317" y="1254"/>
      <point x="228" y="1254"/>
      <point x="228" y="1254" type="curve"/>
      <point x="228" y="1359" type="line" smooth="yes"/>
      <point x="228" y="1557"/>
      <point x="351" y="1730"/>
      <point x="835" y="1730" type="curve" smooth="yes"/>
      <point x="1269" y="1730"/>
      <point x="1893" y="1686"/>
      <point x="2586" y="1593" type="curve"/>
      <point x="2561" y="1519" type="line"/>
      <point x="1882" y="1609"/>
      <point x="1321" y="1648"/>
      <point x="865" y="1648" type="curve" smooth="yes"/>
      <point x="416" y="1648"/>
      <point x="317" y="1511"/>
      <point x="317" y="1350" type="curve" smooth="yes"/>
      <point x="317" y="1254" type="line"/>
    </contour>
    <component base="aavowelsigndeva"/>
  </outline>
</glyph>
<glyph name="janyaradeva" format="1">
  <advance width="1398"/>
  <outline>
    <contour>
      <point x="1126" y="662" type="line"/>
      <point x="768" y="48" type="line"/>
      <point x="696" y="89" type="line"/>
      <point x="1062" y="710" type="line"/>
    </contour>
    <contour>
      <point x="389" y="120" type="curve"/>
      <point x="398" y="100" type="line"/>
      <point x="634" y="-156" type="line"/>
      <point x="579" y="-210" type="line"/>
      <point x="289" y="110" type="line"/>
      <point x="345" y="68" type="line"/>
      <point x="169" y="68"/>
      <point x="75" y="110"/>
      <point x="75" y="176" type="curve" smooth="yes"/>
      <point x="75" y="229"/>
      <point x="118" y="271"/>
      <point x="176" y="271" type="curve" smooth="yes"/>
      <point x="229" y="271"/>
      <point x="289" y="235"/>
    </contour>
    <contour>
      <point x="-30" y="1198" type="curve"/>
      <point x="-30" y="1274" type="line"/>
      <point x="1428" y="1274" type="line"/>
      <point x="1428" y="1198" type="line"/>
      <point x="1428" y="1198"/>
      <point x="-30" y="1198"/>
    </contour>
    <contour>
      <point x="407" y="875" type="curve" smooth="yes"/>
      <point x="282" y="875"/>
      <point x="229" y="823"/>
      <point x="229" y="748" type="curve" smooth="yes"/>
      <point x="229" y="682"/>
      <point x="265" y="641"/>
      <point x="421" y="579" type="curve" smooth="yes"/>
      <point x="580" y="516"/>
      <point x="667" y="435"/>
      <point x="667" y="311" type="curve" smooth="yes"/>
      <point x="667" y="178"/>
      <point x="548" y="69"/>
      <point x="366" y="69" type="curve"/>
      <point x="336" y="139" type="line"/>
      <point x="524" y="139"/>
      <point x="587" y="232"/>
      <point x="587" y="312" type="curve" smooth="yes"/>
      <point x="587" y="401"/>
      <point x="517" y="462"/>
      <point x="368" y="518" type="curve" smooth="yes"/>
      <point x="209" y="578"/>
      <point x="147" y="654"/>
      <point x="147" y="756" type="curve" smooth="yes"/>
      <point x="147" y="865"/>
      <point x="233" y="951"/>
      <point x="412" y="951" type="curve" smooth="yes"/>
      <point x="1074" y="951" type="line"/>
      <point x="1074" y="875" type="line"/>
      <point x="1074" y="875"/>
      <point x="407" y="875"/>
    </contour>
    <contour>
      <point x="1041" y="1238" type="line"/>
      <point x="1130" y="1238" type="line"/>
      <point x="1130" y="0" type="line"/>
      <point x="1041" y="0" type="line"/>
    </contour>
    <contour>
      <point x="1041.0" y="1274.0" type="move" name="top"/>
    </contour>
  </outline>
</glyph>
<glyph name="jaraprehalfdeva" format="1">
  <advance width="1012"/>
  <outline>
    <contour>
      <point x="610" y="760" type="line"/>
      <point x="608" y="787" type="line"/>
      <point x="767" y="721"/>
      <point x="887" y="581"/>
      <point x="887" y="426" type="curve" smooth="yes"/>
      <point x="887" y="268"/>
      <point x="782" y="149"/>
      <point x="601" y="149" type="curve" smooth="yes"/>
      <point x="419" y="149"/>
      <point x="254" y="282"/>
      <point x="92" y="554" type="curve"/>
      <point x="143" y="617" type="line"/>
      <point x="303" y="346"/>
      <point x="449" y="229"/>
      <point x="594" y="229" type="curve" smooth="yes"/>
      <point x="735" y="229"/>
      <point x="808" y="315"/>
      <point x="808" y="432" type="curve" smooth="yes"/>
      <point x="808" y="565"/>
      <point x="678" y="706"/>
      <point x="478" y="767" type="curve"/>
      <point x="478" y="836" type="line"/>
      <point x="1255" y="836" type="line"/>
      <point x="1246" y="760" type="line"/>
    </contour>
    <contour>
      <point x="1367" y="363" type="line"/>
      <point x="715" y="-153" type="line"/>
      <point x="663" y="-92" type="line"/>
      <point x="1316" y="425" type="line"/>
    </contour>
    <contour>
      <point x="-30" y="1198" type="curve"/>
      <point x="-30" y="1274" type="line"/>
      <point x="1042" y="1274" type="line"/>
      <point x="1042" y="1198" type="line"/>
      <point x="1042" y="1198"/>
      <point x="-30" y="1198"/>
    </contour>
  </outline>
</glyph>
<glyph name="jhadevaNEP" format="1">
  <advance width="1738"/>
  <outline>
    <contour>
      <point x="1136" y="1198" type="line"/>
      <point x="1136" y="1274" type="line"/>
      <point x="1768" y="1274" type="line"/>
      <point x="1768" y="1198" type="line"/>
    </contour>
    <contour>
      <point x="1043" y="577" type="curve"/>
      <point x="1022" y="664" type="line"/>
      <point x="1092" y="720"/>
      <point x="1206" y="781"/>
      <point x="1320" y="781" type="curve" smooth="yes"/>
      <point x="1512" y="781"/>
      <point x="1609" y="654"/>
      <point x="1609" y="493" type="curve" smooth="yes"/>
      <point x="1609" y="365"/>
      <point x="1558" y="249"/>
      <point x="1477" y="142" type="curve"/>
      <point x="1403" y="174" type="line"/>
      <point x="1484" y="279"/>
      <point x="1532" y="393"/>
      <point x="1532" y="495" type="curve" smooth="yes"/>
      <point x="1532" y="622"/>
      <point x="1459" y="701"/>
      <point x="1326" y="701" type="curve" smooth="yes"/>
      <point x="1223" y="701"/>
      <point x="1119" y="642"/>
    </contour>
    <component base="bhadeva"/>
    <contour>
      <point x="962" y="1274" type="move" name="top"/>
    </contour>
    <contour>
      <point x="962" y="0" type="move" name="btm"/>
    </contour>
  </outline>
</glyph>
<glyph name="jhaprehalfdevaNEP" format="1">
  <advance width="1368"/>
  <outline>
    <contour>
      <point x="1036" y="558" type="curve"/>
      <point x="1015" y="646" type="line"/>
      <point x="1075" y="709"/>
      <point x="1182" y="764"/>
      <point x="1291" y="764" type="curve" smooth="yes"/>
      <point x="1409" y="764"/>
      <point x="1504" y="728"/>
      <point x="1598" y="645" type="curve"/>
      <point x="1570" y="572" type="line"/>
      <point x="1487" y="646"/>
      <point x="1398" y="684"/>
      <point x="1303" y="684" type="curve" smooth="yes"/>
      <point x="1200" y="684"/>
      <point x="1104" y="634"/>
    </contour>
    <contour>
      <point x="983" y="1198" type="curve"/>
      <point x="983" y="1274" type="line"/>
      <point x="1398" y="1274" type="line"/>
      <point x="1398" y="1198" type="line"/>
      <point x="1398" y="1198"/>
      <point x="983" y="1198"/>
    </contour>
    <component base="bhadeva"/>
  </outline>
</glyph>
<glyph name="jharadevaNEP" format="1">
  <advance width="1738"/>
  <outline>
    <contour>
      <point x="1019" y="506" type="line"/>
      <point x="430" y="-12" type="line"/>
      <point x="373" y="47" type="line"/>
      <point x="968" y="568" type="line"/>
    </contour>
    <component base="jhadevaNEP"/>
    <contour>
      <point x="962" y="1274" type="move" name="top"/>
    </contour>
    <contour>
      <point x="962" y="0" type="move" name="btm"/>
    </contour>
  </outline>
</glyph>
<glyph name="khaprehalfdeva" format="1">
  <advance width="1155"/>
  <outline>
    <contour>
      <point x="213" y="633" type="line"/>
      <point x="415" y="706"/>
      <point x="469" y="803"/>
      <point x="469" y="990" type="curve" smooth="yes"/>
      <point x="469" y="1228" type="line"/>
      <point x="558" y="1228" type="line"/>
      <point x="558" y="977" type="line" smooth="yes"/>
      <point x="558" y="804"/>
      <point x="504" y="653"/>
      <point x="256" y="562" type="curve"/>
    </contour>
    <contour>
      <point x="-30" y="1198" type="line"/>
      <point x="-30" y="1274" type="line"/>
      <point x="1185" y="1274" type="line"/>
      <point x="1185" y="1198" type="line"/>
    </contour>
    <contour>
      <point x="246" y="604" type="line"/>
      <point x="303" y="505"/>
      <point x="349" y="443"/>
      <point x="423" y="369" type="curve" smooth="yes"/>
      <point x="557" y="235"/>
      <point x="762" y="170"/>
      <point x="947" y="170" type="curve" smooth="yes"/>
      <point x="1127" y="170"/>
      <point x="1300" y="225"/>
      <point x="1456" y="345" type="curve"/>
      <point x="1505" y="288" type="line"/>
      <point x="1338" y="155"/>
      <point x="1164" y="92"/>
      <point x="956" y="92" type="curve" smooth="yes"/>
      <point x="728" y="92"/>
      <point x="519" y="161"/>
      <point x="352" y="328" type="curve" smooth="yes"/>
      <point x="265" y="415"/>
      <point x="160" y="582"/>
      <point x="103" y="690" type="curve" smooth="yes"/>
      <point x="88" y="719"/>
      <point x="76" y="746"/>
      <point x="76" y="764" type="curve" smooth="yes"/>
      <point x="76" y="787"/>
      <point x="92" y="801"/>
      <point x="111" y="801" type="curve" smooth="yes"/>
      <point x="130" y="801"/>
      <point x="145" y="791"/>
      <point x="162" y="760" type="curve" smooth="yes"/>
      <point x="235" y="626" type="line"/>
    </contour>
    <contour>
      <point x="1242" y="697" type="curve" smooth="yes"/>
      <point x="1242" y="802"/>
      <point x="1144" y="880"/>
      <point x="1016" y="880" type="curve" smooth="yes"/>
      <point x="884" y="880"/>
      <point x="823" y="795"/>
      <point x="823" y="709" type="curve" smooth="yes"/>
      <point x="823" y="606"/>
      <point x="913" y="525"/>
      <point x="1021" y="525" type="curve" smooth="yes"/>
      <point x="1157" y="525"/>
      <point x="1242" y="601"/>
    </contour>
    <contour>
      <point x="1317" y="691" type="curve" smooth="yes"/>
      <point x="1317" y="559"/>
      <point x="1193" y="451"/>
      <point x="1036" y="451" type="curve" smooth="yes"/>
      <point x="873" y="451"/>
      <point x="747" y="561"/>
      <point x="747" y="726" type="curve" smooth="yes"/>
      <point x="747" y="848"/>
      <point x="846" y="955"/>
      <point x="1004" y="955" type="curve" smooth="yes"/>
      <point x="1193" y="955"/>
      <point x="1317" y="840"/>
    </contour>
  </outline>
</glyph>
<glyph name="llaradeva" format="1">
  <advance width="1511"/>
  <outline>
    <component base="vattudeva" xOffset="1386" yOffset="38"/>
    <component base="lladeva"/>
    <contour>
      <point x="1146" y="1274" type="move" name="top"/>
    </contour>
    <contour>
      <point x="1067" y="-254" type="move" name="blw"/>
    </contour>
  </outline>
</glyph>
<glyph name="saraprehalfdeva" format="1">
  <advance width="873"/>
  <outline>
    <contour>
      <point x="1093" y="566" type="line"/>
      <point x="786" y="163" type="line"/>
      <point x="717" y="212" type="line"/>
      <point x="1023" y="607" type="line"/>
    </contour>
    <contour>
      <point x="691" y="53" type="line"/>
      <point x="627" y="4" type="line"/>
      <point x="96" y="745" type="line" smooth="yes"/>
      <point x="82" y="765"/>
      <point x="72" y="777"/>
      <point x="72" y="795" type="curve" smooth="yes"/>
      <point x="72" y="816"/>
      <point x="89" y="833"/>
      <point x="113" y="833" type="curve" smooth="yes"/>
      <point x="127" y="833"/>
      <point x="140" y="826"/>
      <point x="151" y="810" type="curve" smooth="yes"/>
      <point x="325" y="565" type="line"/>
      <point x="339" y="545" type="line"/>
    </contour>
    <contour>
      <point x="235" y="580" type="line"/>
      <point x="426" y="621"/>
      <point x="514" y="743"/>
      <point x="514" y="930" type="curve" smooth="yes"/>
      <point x="514" y="1228" type="line"/>
      <point x="603" y="1228" type="line"/>
      <point x="603" y="917" type="line" smooth="yes"/>
      <point x="603" y="744"/>
      <point x="539" y="569"/>
      <point x="289" y="514" type="curve"/>
    </contour>
    <contour>
      <point x="-30" y="1198" type="line"/>
      <point x="-30" y="1274" type="line"/>
      <point x="903" y="1274" type="line"/>
      <point x="903" y="1198" type="line"/>
    </contour>
    <contour>
      <point x="475" y="602" type="curve"/>
      <point x="500" y="675" type="line"/>
      <point x="625" y="614"/>
      <point x="730" y="593"/>
      <point x="826" y="593" type="curve" smooth="yes"/>
      <point x="910" y="593"/>
      <point x="989" y="609"/>
      <point x="1070" y="640" type="curve"/>
      <point x="1096" y="563" type="line"/>
      <point x="1015" y="532"/>
      <point x="934" y="513"/>
      <point x="842" y="513" type="curve" smooth="yes"/>
      <point x="729" y="513"/>
      <point x="621" y="536"/>
    </contour>
  </outline>
</glyph>
<glyph name="shacaprehalfdeva" format="1">
  <advance width="927"/>
  <outline>
    <contour>
      <point x="149" y="521" type="line"/>
      <point x="104" y="589" type="line"/>
      <point x="386" y="759" type="line" smooth="yes"/>
      <point x="577" y="874"/>
      <point x="651" y="957"/>
      <point x="651" y="1060" type="curve" smooth="yes"/>
      <point x="651" y="1155"/>
      <point x="573" y="1226"/>
      <point x="473" y="1226" type="curve" smooth="yes"/>
      <point x="362" y="1226"/>
      <point x="291" y="1158"/>
      <point x="291" y="1058" type="curve" smooth="yes"/>
      <point x="291" y="899"/>
      <point x="486" y="749"/>
      <point x="1105" y="750" type="curve"/>
      <point x="1080" y="673" type="line"/>
      <point x="414" y="673"/>
      <point x="212" y="866"/>
      <point x="212" y="1073" type="curve" smooth="yes"/>
      <point x="212" y="1200"/>
      <point x="314" y="1303"/>
      <point x="463" y="1303" type="curve" smooth="yes"/>
      <point x="630" y="1303"/>
      <point x="728" y="1192"/>
      <point x="728" y="1055" type="curve" smooth="yes"/>
      <point x="728" y="920"/>
      <point x="627" y="811"/>
      <point x="442" y="699" type="curve" smooth="yes"/>
    </contour>
    <contour>
      <point x="352" y="203" type="curve"/>
      <point x="308" y="271" type="line"/>
      <point x="741" y="539" type="line"/>
      <point x="784" y="471" type="line"/>
      <point x="784" y="471"/>
      <point x="352" y="203"/>
    </contour>
    <contour>
      <point x="1116.0" y="547.0" type="curve"/>
      <point x="1146" y="559" type="line"/>
      <point x="1175.0" y="501.0" type="line"/>
      <point x="1145.0" y="239.0"/>
      <point x="995.0" y="32.0"/>
      <point x="787.0" y="32.0" type="curve" smooth="yes"/>
      <point x="644.0" y="32.0"/>
      <point x="548.0" y="132.0"/>
      <point x="548.0" y="257.0" type="curve" smooth="yes"/>
      <point x="548.0" y="344.0"/>
      <point x="592.0" y="428.0"/>
      <point x="680.0" y="483.0" type="curve"/>
      <point x="733.0" y="440.0" type="line"/>
      <point x="659.0" y="394.0"/>
      <point x="623.0" y="324.0"/>
      <point x="624.0" y="252.0" type="curve" smooth="yes"/>
      <point x="625.0" y="166.0"/>
      <point x="689.0" y="107.0"/>
      <point x="786.0" y="107.0" type="curve" smooth="yes"/>
      <point x="918.0" y="107.0"/>
      <point x="1070.0" y="242.0"/>
    </contour>
  </outline>
</glyph>
<glyph name="tthayadeva" format="1">
  <advance width="2312"/>
  <outline>
    <contour>
      <point x="1973" y="1226" type="line"/>
      <point x="2062" y="1226" type="line"/>
      <point x="2062" y="0" type="line"/>
      <point x="1973" y="0" type="line"/>
    </contour>
    <contour>
      <point x="1135" y="1198" type="curve"/>
      <point x="1135" y="1274" type="line"/>
      <point x="2342" y="1274" type="line"/>
      <point x="2342" y="1198" type="line"/>
      <point x="2342" y="1198"/>
      <point x="1135" y="1198"/>
    </contour>
    <contour>
      <point x="781" y="810" type="line"/>
      <point x="780" y="886" type="line"/>
      <point x="1354" y="886" type="line" smooth="yes"/>
      <point x="1548" y="886"/>
      <point x="1635" y="803"/>
      <point x="1635" y="670" type="curve" smooth="yes"/>
      <point x="1635" y="539"/>
      <point x="1506" y="466"/>
      <point x="1306" y="413" type="curve"/>
      <point x="1313" y="476" type="line"/>
      <point x="1390" y="325"/>
      <point x="1533" y="239"/>
      <point x="1670" y="239" type="curve" smooth="yes"/>
      <point x="1802" y="239"/>
      <point x="1921" y="297"/>
      <point x="2025" y="433" type="curve"/>
      <point x="2024" y="320" type="line"/>
      <point x="1937" y="223"/>
      <point x="1825" y="161"/>
      <point x="1675" y="161" type="curve" smooth="yes"/>
      <point x="1507" y="161"/>
      <point x="1343" y="260"/>
      <point x="1227" y="462" type="curve"/>
      <point x="1227" y="467" type="line"/>
      <point x="1448" y="527"/>
      <point x="1555" y="582"/>
      <point x="1555" y="674" type="curve" smooth="yes"/>
      <point x="1555" y="757"/>
      <point x="1495" y="810"/>
      <point x="1344" y="810" type="curve" smooth="yes"/>
    </contour>
    <component base="tthadeva"/>
    <contour>
      <point x="1973" y="1274" type="move" name="top"/>
    </contour>
  </outline>
</glyph>
<glyph name="vattuuudeva" format="1">
  <advance width="0"/>
  <outline>
    <component base="uuvowelsignlowdeva" xOffset="-27" yOffset="-368"/>
    <component base="vattudeva" yOffset="-20"/>
    <contour>
      <point x="-339" y="0" type="move" name="_btm"/>
    </contour>
  </outline>
</glyph>
